<?xml version="1.0" encoding="utf-8"?>
<svg viewBox="0 0 800 800" xmlns="http://www.w3.org/2000/svg">
  <defs>
    <linearGradient x1="50%" y1="0%" x2="50%" y2="100%" id="ccchaos-grad">
      <stop stop-color="hsl(206, 75%, 49%)" stop-opacity="1" offset="0"/>
      <stop stop-color="hsl(331, 90%, 56%)" stop-opacity="1" offset="1"/>
    </linearGradient>
  </defs>
  <g stroke-width="2" stroke="url(#ccchaos-grad)" fill="none" stroke-linecap="round" transform="matrix(1.258415937423706, 0, 0, 1.1794010400772095, -125.26663208007801, -64.02812194824219)" style="">
    <path d="M374.88 61.11Q382.59 63.86 390.5 67.54 398.63 72.29 406.99 78.2 415.6 85.22 424.47 93.21 433.61 101.96 443.03 111.15 452.74 120.43 462.73 129.44 473 137.83 483.56 145.28 494.39 151.58 505.48 156.58 516.83 160.27 528.41 162.75 540.22 164.23 552.22 165.03 564.4 165.5 576.73 166.08 589.18 167.16 601.72 169.13 614.33 172.29 626.96 176.84 639.58 182.88 652.16 190.35 664.67 199.09 677.07 208.78 689.32 219.06 701.39 229.48 713.24 239.56 724.85 248.86 728.26 259.45 730.23 270.05 730.7 280.65 729.66 291.25 727.14 301.84 723.23 312.44 718.06 323.04 711.8 333.64 704.66 344.23 696.9 354.83 688.76 365.43 680.53 376.03 672.49 386.62 664.91 397.22 658.03 407.82 652.11 418.42 647.33 429.01 643.86 439.61 641.82 450.21 641.28 460.81 642.25 471.4 644.7 482 648.55 492.6 653.67 503.2 659.88 513.8 666.98 524.39 674.72 534.99 682.84 545.59 691.07 556.19 699.13 566.79 689.84 577.13 671.16 571.67 662.82 572.19 654.11 575.23 645.05 581.01 635.65 589.51 625.92 600.46 615.87 613.37 605.53 627.58 594.92 642.3 584.06 656.69 572.98 669.93 561.69 681.29 550.24 690.19 538.65 696.28 526.94 699.44 515.15 699.82 503.31 697.82 491.45 694.04 479.58 689.25 467.76 684.33 455.99 680.18 444.3 677.61 432.73 677.35 421.28 679.88 409.98 685.48 398.85 694.13 387.91 705.56 374.86 714.13 361.71 723.95 348.14 727.34 334.21 723.03 327 715.75 319.63 705.68 312.08 693.29 304.36 679.25 296.46 664.34 288.37 649.43 280.09 635.38 271.63 622.96 262.99 612.78 254.17 605.27 245.19 600.59 236.04 598.68 226.76 599.22 217.33 601.68 207.79 605.38 198.14 609.51 188.4 613.26 178.59 615.86 168.72 616.63 158.81 615.07 148.88 610.91 138.94 604.08 129.01 594.75 119.11 583.34 117.83 572.79 116.42 562.25 114.93 551.71 113.41 541.17 111.91 530.63 110.48 520.09 109.17 509.54 108.02 499 107.07 488.46 106.36 477.92 105.91 467.38 105.73 456.84 105.83 446.3 106.21 435.75 106.85 425.21 107.73 414.67 108.83 404.13 110.1 393.59 111.5 383.05 112.99 372.51 114.51 361.97 116.01 351.42 117.45 340.88 118.76 330.34 119.92 319.8 120.88 309.26 121.6 298.72 122.07 288.18 122.26 277.64 122.17 267.1 125.99 250.5 139.05 241.52 147.8 237.06 156.41 231.05 164.88 223.58 173.22 214.89 181.41 205.31 189.47 195.26 197.4 185.16 205.2 175.45 212.87 166.53 220.44 158.7 235.26 147.72 249.88 140.71 264.32 138.22 278.77 136.45 293.45 132.23 308.39 124.9 316.06 119.14 323.88 112.23 331.87 104.37 340.05 95.81 348.42 86.87 357.01 77.88 370.36 65.16 374.88 61.11" stroke-dasharray="5 18" transform="rotate(0, 400, 400)"/>
    <path d="M373.62 73.5Q381.54 76.06 389.67 79.49 398.03 83.94 406.61 89.5 415.44 96.13 424.52 103.72 433.85 112.09 443.44 120.96 453.28 130.02 463.37 138.94 473.71 147.39 484.28 155.07 495.08 161.72 506.1 167.19 517.32 171.41 528.71 174.42 540.28 176.33 551.98 177.4 563.8 177.91 575.71 178.22 587.69 178.72 599.71 179.78 611.74 181.74 623.75 184.85 635.7 189.31 647.58 195.17 659.34 202.39 670.97 210.81 682.42 220.18 693.67 230.13 704.7 240.28 715.47 250.2 717.89 260.29 718.97 270.38 718.67 280.48 717.01 290.57 714.03 300.66 709.82 310.75 704.53 320.85 698.31 330.94 691.36 341.03 683.9 351.12 676.16 361.22 668.38 371.31 660.81 381.4 653.69 391.49 647.23 401.59 641.64 411.68 637.1 421.77 633.74 431.86 631.67 441.96 630.96 452.05 631.63 462.14 633.66 472.24 636.99 482.33 641.5 492.42 647.06 502.51 653.5 512.61 660.61 522.7 668.17 532.79 675.95 542.89 683.69 552.98 676.34 562.15 659.46 559.91 651.9 562.81 644.02 568.2 635.81 576.08 627.28 586.24 618.43 598.27 609.29 611.61 599.85 625.6 590.15 639.49 580.18 652.56 569.98 664.12 559.56 673.63 548.94 680.68 538.15 685.09 527.22 686.85 516.16 686.22 505.01 683.62 493.78 679.66 482.51 675.05 471.22 670.56 459.93 666.99 448.66 665.02 437.45 665.26 426.31 668.11 415.26 673.77 404.33 682.21 393.52 693.17 381 701.13 368.23 710.42 354.88 714.35 341.1 711.53 333.94 705.47 326.6 696.77 319.08 685.77 311.39 672.98 303.52 659.06 295.46 644.75 287.23 630.8 278.83 617.95 270.26 606.82 261.53 597.89 252.66 591.47 243.65 587.64 234.51 586.29 225.25 587.09 215.9 589.56 206.47 593.06 196.96 596.91 187.39 600.39 177.79 602.8 168.16 603.58 158.53 602.26 148.9 598.58 139.29 592.46 129.71 584.03 128.29 573.81 126.77 563.59 125.19 553.37 123.61 543.15 122.07 532.93 120.62 522.71 119.31 512.48 118.17 502.26 117.25 492.04 116.58 481.82 116.16 471.6 116.03 461.38 116.17 451.16 116.59 440.94 117.28 430.72 118.2 420.5 119.34 410.28 120.65 400.06 122.11 389.84 123.65 379.62 125.23 369.4 126.81 359.18 128.33 348.96 129.74 338.74 131.01 328.52 132.09 318.3 132.95 308.08 133.55 297.86 133.89 287.64 133.95 277.42 137.85 260.56 150.59 249.38 159.09 243.38 167.46 236.02 175.71 227.52 183.82 218.19 191.8 208.4 199.64 198.55 207.35 189.04 214.92 180.24 222.38 172.43 229.71 165.83 244.03 157.18 258.08 152.05 271.84 150.37 285.52 148.78 299.25 144.16 313.12 136.4 320.19 130.51 327.36 123.56 334.66 115.74 342.1 107.32 349.7 98.57 357.48 89.82 369.54 77.44 373.62 73.5" stroke-dasharray="10 14" transform="rotate(4.04, 400, 400)"/>
    <path d="M373.71 85.89Q381.83 88.25 390.16 91.45 398.71 95.61 407.47 100.81 416.47 107.05 425.68 114.22 435.13 122.19 444.79 130.7 454.68 139.5 464.77 148.27 475.07 156.72 485.56 164.55 496.23 171.51 507.06 177.42 518.04 182.17 529.15 185.73 540.37 188.17 551.67 189.64 563.05 190.38 574.46 190.68 585.9 190.86 597.32 191.29 608.71 192.28 620.05 194.14 631.3 197.12 642.43 201.36 653.43 206.93 664.27 213.79 674.91 221.81 685.35 230.77 695.55 240.35 705.5 250.21 707.01 259.78 707.27 269.36 706.29 278.93 704.09 288.51 700.73 298.08 696.31 307.65 690.95 317.23 684.82 326.8 678.09 336.38 670.94 345.95 663.6 355.52 656.27 365.1 649.17 374.67 642.49 384.25 636.43 393.82 631.17 403.39 626.85 412.97 623.61 422.54 621.54 432.11 620.69 441.69 621.09 451.26 622.72 460.84 625.55 470.41 629.49 479.98 634.43 489.56 640.22 499.13 646.7 508.7 653.67 518.28 660.94 527.85 668.31 537.42 662.45 548.39 647.18 550.72 640.34 555.94 633.21 563.42 625.79 572.98 618.08 584.27 610.08 596.83 601.79 610.08 593.23 623.38 584.4 636.09 575.31 647.59 565.99 657.38 556.44 665.04 546.68 670.34 536.74 673.21 526.62 673.77 516.34 672.32 505.94 669.3 495.43 665.29 484.83 660.94 474.17 656.93 463.46 653.94 452.73 652.55 442 653.26 431.29 656.38 420.61 662.07 410 670.28 399.46 680.78 387.24 688.15 374.67 696.9 361.41 701.27 347.67 699.75 340.51 694.82 333.18 687.44 325.67 677.82 317.99 666.35 310.14 653.56 302.12 640.04 293.94 626.48 285.6 613.52 277.12 601.78 268.5 591.76 259.75 583.85 250.88 578.24 241.91 574.99 232.84 573.96 223.7 574.83 214.49 577.18 205.23 580.44 195.93 584.02 186.61 587.28 177.28 589.62 167.95 590.53 158.64 589.59 149.35 586.54 140.11 581.28 138.57 571.43 136.96 561.57 135.31 551.72 133.69 541.86 132.13 532.01 130.69 522.15 129.4 512.3 128.3 502.45 127.42 492.59 126.78 482.74 126.42 472.88 126.33 463.03 126.52 453.17 126.98 443.32 127.71 433.46 128.67 423.61 129.84 413.75 131.2 403.9 132.69 394.04 134.27 384.19 135.91 374.34 137.55 364.48 139.14 354.63 140.64 344.77 142.01 334.92 143.21 325.06 144.19 315.21 144.94 305.35 145.43 295.5 145.65 285.64 149.66 268.5 162.09 255.12 170.35 247.78 178.5 239.4 186.52 230.28 194.41 220.75 202.18 211.17 209.82 201.92 217.32 193.31 224.7 185.63 239.02 174.37 253 166.79 266.48 164.05 279.73 162.75 292.72 160.7 305.64 156.52 318.63 147.24 331.75 134.8 338.44 127.05 345.23 118.77 352.13 110.24 359.17 101.73 370.04 89.71 373.71 85.89" stroke-dasharray="5 14" transform="rotate(8.08, 400, 400)"/>
    <path d="M375.15 98.3Q383.43 100.47 391.91 103.43 400.59 107.3 409.47 112.15 418.55 117.99 427.82 124.74 437.29 132.28 446.94 140.41 456.77 148.89 466.76 157.46 476.92 165.84 487.21 173.75 497.64 180.95 508.19 187.25 518.83 192.49 529.55 196.62 540.34 199.64 551.17 201.64 562.01 202.77 572.86 203.27 583.68 203.4 594.46 203.47 605.17 203.79 615.79 204.67 626.3 206.36 636.67 209.1 646.89 213.02 656.93 218.19 666.78 224.59 676.41 232.12 685.8 240.58 694.95 249.72 695.62 258.78 695.16 267.84 693.58 276.9 690.92 285.95 687.26 295.01 682.69 304.07 677.33 313.13 671.33 322.19 664.84 331.24 658.03 340.3 651.1 349.36 644.21 358.42 637.56 367.48 631.31 376.53 625.64 385.59 620.7 394.65 616.61 403.71 613.49 412.77 611.41 421.82 610.44 430.88 610.6 439.94 611.88 449 614.25 458.06 617.64 467.11 621.98 476.17 627.14 485.23 632.98 494.29 639.35 503.34 646.09 512.4 653.01 521.46 648.25 536.57 634.39 544.2 628.2 551.46 621.77 560.59 615.07 571.3 608.11 583.17 600.89 595.71 593.41 608.37 585.68 620.6 577.69 631.84 569.46 641.64 561 649.6 552.31 655.48 543.41 659.17 534.31 660.69 525.03 660.25 515.57 658.17 505.97 654.89 496.22 650.95 486.36 646.94 476.4 643.44 466.36 641.03 456.26 640.19 446.11 641.33 435.93 644.69 425.75 650.38 415.58 658.35 405.44 668.37 393.33 675.18 380.81 683.38 367.53 688.07 353.76 687.69 346.58 683.81 339.24 677.67 331.73 669.4 324.07 659.28 316.24 647.7 308.27 635.17 300.15 622.24 291.9 609.49 283.51 597.48 275.01 586.72 266.41 577.62 257.71 570.48 248.92 565.45 240.07 562.54 231.15 561.62 222.19 562.42 213.19 564.55 204.18 567.53 195.15 570.84 186.13 573.94 177.13 576.28 168.15 577.42 153.94 571.09 146.99 555.77 145.3 546.33 143.67 536.89 142.12 527.44 140.69 518 139.44 508.56 138.38 499.12 137.56 489.67 136.98 480.23 136.67 470.79 136.63 461.34 136.87 451.9 137.37 442.46 138.13 433.02 139.13 423.57 140.33 414.13 141.71 404.69 143.23 395.24 144.85 385.8 146.52 376.36 148.21 366.91 149.87 357.47 151.44 348.03 152.91 338.59 154.21 329.14 155.32 319.7 156.21 310.26 156.86 300.81 157.24 291.37 157.35 281.93 157.19 272.48 165.4 266.22 173.52 258.82 181.54 250.52 189.46 241.57 197.26 232.29 204.95 223.01 212.52 214.06 219.96 205.73 227.28 198.27 234.47 191.86 248.42 183.11 262.02 177.67 275.08 176.06 287.86 175.24 300.28 172.88 312.57 168.2 324.75 158.53 336.96 145.96 343.13 138.3 349.35 130.2 355.65 121.89 362.04 113.64 371.84 102 375.15 98.3" stroke-dasharray="11 11" transform="rotate(12.12, 400, 400)"/>
    <path d="M377.86 110.69Q394.8 115.41 412.44 123.5 430.74 135.26 449.66 150.07 469.12 166.51 489.03 182.67 509.28 196.64 529.75 207.02 550.29 213.23 570.77 215.77 591.02 216.09 610.9 216.24 630.25 218.41 648.94 224.32 666.84 234.82 683.84 249.62 682.65 266.75 677.54 283.87 669 301 657.85 318.12 645.18 335.25 632.2 352.37 620.16 369.49 610.23 386.62 603.37 403.74 600.23 420.86 601.12 437.99 605.95 455.11 614.26 472.23 625.25 489.36 637.85 506.48 650.85 523.6 641.64 522.48 631.79 527.68 621.19 540.23 609.76 559.31 597.44 582.47 584.21 606.14 570.06 626.58 555 640.78 539.09 647.24 522.38 646.37 504.96 640.46 486.94 633.09 468.42 628.28 449.53 629.48 430.39 638.71 411.13 655.98 399.07 662 386.41 669.89 373.13 675.52 359.22 675.39 344.68 667.48 329.54 651.72 313.85 630.01 297.66 605.66 281.06 582.58 264.12 564.27 246.93 553.02 229.57 549.3 212.15 551.72 194.75 557.42 177.45 562.76 160.32 564.27 156.89 546.29 153.56 528.31 150.66 510.32 148.47 492.34 147.19 474.36 146.96 456.37 147.78 438.39 149.6 420.4 152.22 402.42 155.4 384.43 158.83 366.45 162.17 348.47 165.12 330.48 167.37 312.5 168.72 294.51 169.03 276.53 184.86 260.77 200.33 242.97 215.4 225.42 230.02 210.29 244.17 199.07 257.85 192.23 271.05 189.16 283.8 188.34 296.15 187.74 308.14 185.36 319.87 179.7 331.41 170.14 342.87 157.02 354.35 141.57 365.98 125.51 377.86 110.69 377.86 110.69 377.86 110.69" stroke-dasharray="15 3" transform="rotate(16.16, 400, 400)"/>
    <path d="M381.7 123.08Q398.65 127.41 416.18 134.87 434.23 145.8 452.74 159.71 471.63 175.44 490.81 191.32 510.16 205.61 529.57 216.86 548.93 224.29 568.09 227.99 586.93 228.89 605.32 228.63 623.15 229.17 640.29 232.34 656.66 239.41 672.17 250.81 669.77 267.01 663.96 283.2 655.24 299.39 644.4 315.59 632.37 331.78 620.23 347.98 609.03 364.17 599.76 380.36 593.24 396.56 590.04 412.75 590.45 428.94 594.42 445.14 601.61 461.33 611.38 477.52 622.88 493.71 635.09 509.91 626.47 512.98 617.36 522.54 607.66 538.44 597.29 559.06 586.17 581.68 574.27 603.05 561.56 620.16 548.04 630.9 533.72 634.61 518.64 632.21 502.86 626.06 486.44 619.4 469.48 615.68 452.06 617.71 434.28 627.05 416.25 643.59 404.07 649.08 391.29 656.42 377.91 662.05 363.94 662.85 349.4 656.85 334.34 643.64 318.81 624.46 302.88 601.85 286.61 579.1 270.1 559.46 253.41 545.42 236.63 538.16 219.85 537.3 203.13 541.04 186.54 546.56 170.15 550.71 166.67 533.69 163.38 516.66 160.59 499.64 158.54 482.62 157.41 465.59 157.29 448.57 158.2 431.54 160.07 414.52 162.71 397.5 165.91 380.47 169.38 363.45 172.81 346.42 175.91 329.4 178.4 312.38 180.06 295.35 180.74 278.33 196.05 261.49 211.05 244.19 225.7 228.46 239.94 215.91 253.75 207.38 267.1 202.79 280 201.18 292.44 200.93 304.47 200.19 316.11 197.26 327.41 191.02 338.46 181.1 349.31 167.99 360.08 152.89 370.84 137.38 381.7 123.08 381.7 123.08 381.7 123.08" stroke-dasharray="14 16" transform="rotate(20.200000000000003, 400, 400)"/>
    <path d="M386.48 135.47Q403.25 139.42 420.46 146.27 438.05 156.36 455.95 169.35 474.08 184.28 492.35 199.74 510.65 214.15 528.89 226.13 546.95 234.73 564.73 239.71 582.12 241.58 599.02 241.52 615.34 241.15 630.98 242.21 645.89 246.19 659.99 254.01 656.56 269.35 650.21 284.69 641.45 300.03 630.98 315.36 619.63 330.7 608.31 346.04 597.92 361.38 589.29 376.72 583.12 392.05 579.89 407.39 579.86 422.73 583.04 438.07 589.17 453.41 597.76 468.74 608.12 484.08 619.43 499.42 611.3 506.86 602.82 520.16 593.9 538.29 584.44 559.24 574.39 580.33 563.68 598.83 552.28 612.48 540.16 620 527.34 621.37 513.81 617.84 499.62 611.72 484.8 605.9 469.41 603.24 453.52 606.02 437.2 615.4 420.54 631.2 408.2 636.18 395.29 642.97 381.82 648.52 367.83 650.09 353.35 645.8 338.43 635 323.14 618.39 307.53 597.85 291.68 576.04 275.65 555.82 259.53 539.67 243.38 529.21 227.28 524.84 211.28 525.72 195.44 529.95 179.81 534.96 176.33 518.93 173.14 502.9 170.5 486.87 168.61 470.83 167.63 454.8 167.64 438.77 168.63 422.74 170.53 406.71 173.19 390.67 176.39 374.64 179.87 358.61 183.37 342.58 186.59 326.54 189.29 310.51 191.24 294.48 192.3 278.45 207.08 261.68 221.61 245.86 235.82 232.55 249.67 222.78 263.14 216.83 276.18 214.16 288.8 213.62 300.97 213.61 312.73 212.51 324.08 208.96 335.06 202.13 345.72 191.91 356.12 178.88 366.33 164.17 376.42 149.22 386.48 135.47 386.48 135.47 386.48 135.47" stroke-dasharray="19 4" transform="rotate(24.24, 400, 400)"/>
    <path d="M391.95 147.86Q408.33 151.44 425.02 157.69 441.95 166.96 459.06 179 476.25 193.05 493.46 207.95 510.59 222.3 527.56 234.8 544.27 244.46 560.63 250.77 576.56 253.88 591.98 254.53 606.83 253.97 621.03 253.7 634.54 255.21 647.32 259.69 643.05 274.25 636.33 288.81 627.64 303.37 617.6 317.93 606.94 332.49 596.43 347.05 586.83 361.61 578.82 376.17 573 390.73 569.76 405.28 569.36 419.84 571.81 434.4 576.95 448.96 584.39 463.52 593.61 478.08 603.94 492.64 596.22 504 588.27 519.99 580.01 539.11 571.34 559.23 562.2 577.99 552.54 593.26 542.31 603.51 531.47 608.14 520.02 607.61 507.94 603.34 495.25 597.5 481.98 592.59 468.14 590.96 453.79 594.39 438.98 603.76 423.78 618.81 411.28 623.31 398.27 629.55 384.77 634.96 370.83 637.14 356.49 634.34 341.8 625.77 326.83 611.73 311.62 593.49 296.26 573.13 280.8 553.05 265.3 535.57 249.84 522.48 234.45 514.74 219.21 512.28 204.15 514.08 189.31 518.31 185.9 503.27 182.85 488.23 180.38 473.19 178.68 458.16 177.87 443.12 178 428.08 179.07 413.04 181 398 183.65 382.96 186.83 367.92 190.31 352.88 193.83 337.84 197.15 322.8 200.03 307.76 202.25 292.72 203.66 277.68 217.92 262.11 231.95 248.54 245.72 238.03 259.17 231.04 272.28 227.38 285.02 226.23 297.36 226.35 309.28 226.28 320.8 224.64 331.92 220.4 342.65 213.02 353.03 202.57 363.1 189.68 372.9 175.41 387.22 154.46 391.95 147.86" stroke-dasharray="14 5" transform="rotate(28.28, 400, 400)"/>
    <path d="M397.84 160.25Q413.62 163.48 429.59 169.15 445.68 177.59 461.82 188.67 477.95 201.78 493.98 215.98 509.85 230.08 525.47 242.89 540.79 253.42 555.73 261.01 570.21 265.51 584.2 267.29 597.63 267.19 610.45 266.4 625.96 274.05 622.33 295.7 613.81 309.54 604.27 323.39 594.32 337.24 584.61 351.08 575.76 364.93 568.36 378.78 562.87 392.63 559.66 406.47 558.93 420.32 560.73 434.17 564.94 448.02 571.3 461.86 579.38 475.71 588.67 489.56 581.29 503.88 573.79 521.3 566.08 540.14 558.08 558.44 549.73 574.3 540.98 586.2 531.77 593.27 522.07 595.43 511.86 593.45 501.1 588.81 489.82 583.46 477.99 579.5 465.65 578.83 452.81 582.84 439.52 592.13 425.8 606.42 413.2 610.46 400.16 616.16 386.72 621.36 372.92 624 358.82 622.5 344.46 615.97 329.89 604.4 315.19 588.61 300.39 570.11 285.56 550.83 270.76 532.81 256.02 517.85 241.41 507.18 226.96 501.33 212.71 500 198.68 502.13 195.38 488.06 192.52 473.99 190.26 459.91 188.77 445.84 188.13 431.77 188.39 417.7 189.53 403.62 191.47 389.55 194.1 375.48 197.24 361.41 200.68 347.34 204.21 333.27 207.6 319.19 210.62 305.12 213.08 291.05 214.82 276.98 228.53 263.53 242.05 252.73 255.35 245.12 268.39 240.69 281.13 238.92 293.54 238.83 305.6 239.21 317.28 238.8 328.58 236.5 339.49 231.56 350.03 223.68 360.2 213.07 370.03 200.38 379.55 186.6 393.32 166.56 397.84 160.25" stroke-dasharray="12 9" transform="rotate(32.32, 400, 400)"/>
    <path d="M403.83 172.65Q418.84 175.54 433.92 180.65 449.01 188.29 464.05 198.39 478.99 210.51 493.76 223.89 508.3 237.54 522.56 250.43 536.48 261.6 550 270.32 563.08 276.24 575.68 279.4 587.76 280.3 599.3 279.75 612.77 285.38 608.26 305.1 600 318.29 591 331.47 581.76 344.66 572.83 357.84 564.72 371.03 557.89 384.21 552.74 397.4 549.58 410.59 548.58 423.77 549.79 436.96 553.16 450.14 558.49 463.33 565.46 476.51 573.67 489.7 566.59 505.69 559.45 523.2 552.2 540.63 544.77 556.36 537.09 568.99 529.11 577.6 520.79 581.83 512.09 581.98 502.97 579.01 493.4 574.31 483.39 569.61 472.91 566.62 461.97 566.86 450.57 571.34 438.74 580.5 426.49 594.02 413.88 597.63 400.92 602.8 387.65 607.74 374.11 610.7 360.36 610.28 346.43 605.57 332.37 596.35 318.25 583.04 304.1 566.7 289.98 548.8 275.92 531.03 261.98 515.02 248.17 502.12 234.55 493.21 221.13 488.53 207.93 487.71 204.81 474.56 202.17 461.41 200.15 448.26 198.87 435.1 198.41 421.95 198.79 408.8 199.99 395.65 201.94 382.5 204.53 369.35 207.61 356.2 211 343.04 214.5 329.89 217.92 316.74 221.05 303.59 223.72 290.44 225.76 277.29 238.89 266.61 251.88 258.79 264.69 253.92 277.29 251.66 289.64 251.28 301.7 251.77 313.45 252.06 324.88 251.09 335.96 248.04 346.68 242.41 357.04 234.1 367.05 223.42 376.71 211.02 386.04 197.77 399.45 178.66 403.83 172.65" stroke-dasharray="8 10" transform="rotate(36.36, 400, 400)"/>
    <path d="M409.63 185.05Q423.69 187.61 437.73 192.18 451.69 199.03 465.54 208.15 479.21 219.24 492.67 231.7 505.86 244.74 518.75 257.46 531.29 269.01 543.44 278.64 555.17 285.88 566.45 290.54 577.27 292.8 587.6 293.14 599.27 298.13 594.12 316.45 586.22 329 577.79 341.55 569.28 354.1 561.1 366.65 553.69 379.2 547.42 391.75 542.62 404.3 539.52 416.85 538.29 429.4 539 441.95 541.6 454.5 545.96 467.04 551.86 479.59 559 492.14 552.16 508.41 545.34 524.77 538.48 539.89 531.51 552.57 516.96 565.62 501.67 567.96 493.5 564.4 484.98 559.94 476.1 556.01 466.83 553.99 457.17 555.04 447.11 559.92 436.66 568.88 425.83 581.62 413.34 584.83 400.59 589.49 387.61 594.12 374.45 597.28 361.16 597.73 347.77 594.61 334.33 587.55 320.88 576.69 307.46 562.7 294.11 546.62 280.85 529.78 267.74 513.58 254.78 499.3 242.01 487.96 229.44 480.18 217.1 476.09 214.21 463.8 211.82 451.51 210.05 439.22 209 426.93 208.71 414.64 209.21 402.35 210.46 390.06 212.41 377.77 214.95 365.48 217.95 353.19 221.26 340.9 224.71 328.61 228.13 316.32 231.33 304.03 234.15 291.74 236.46 279.45 248.99 271.81 261.42 266.86 273.71 264.35 285.83 263.74 297.75 264.21 309.43 264.84 320.86 264.71 332 263.02 342.83 259.18 353.35 252.91 363.55 244.27 373.41 233.62 382.94 221.56 392.14 208.88 405.33 190.75 409.63 185.05" stroke-dasharray="12 19" transform="rotate(40.400000000000006, 400, 400)"/>
    <path d="M414.93 197.44Q427.91 199.7 440.8 203.74 453.55 209.83 466.13 218 478.5 228.03 490.63 239.48 502.48 251.74 514.02 264.06 525.22 275.7 536.06 285.97 546.51 294.32 556.56 300.42 566.2 304.22 575.41 305.92 585.49 311.48 579.96 328.89 572.48 340.8 564.66 352.72 556.86 364.63 549.42 376.55 542.68 388.46 536.95 400.38 532.48 412.29 529.48 424.21 528.08 436.12 528.34 448.04 530.25 459.95 533.72 471.87 538.61 483.78 544.68 495.7 538.07 510.91 531.52 525.12 524.98 537.33 518.42 546.78 504.93 554.46 490.96 553.52 475.85 546.22 459.9 541.6 451.38 543.38 442.54 548.56 433.36 557.27 423.85 569.23 411.62 572.05 399.21 576.21 386.67 580.5 374.03 583.75 361.32 584.88 348.58 583.1 335.84 577.98 323.15 569.45 310.52 557.88 298 543.94 285.6 528.62 273.35 513.01 261.27 498.25 249.38 485.35 237.7 475.09 226.22 467.93 223.59 456.43 221.48 444.94 219.98 433.45 219.16 421.96 219.05 410.47 219.65 398.98 220.95 387.48 222.88 375.99 225.35 364.5 228.26 353.01 231.47 341.52 234.84 330.03 238.22 318.54 241.45 307.05 244.39 295.55 246.9 284.06 258.81 279.37 270.65 276.9 282.39 276.21 293.99 276.64 305.44 277.44 316.7 277.81 327.75 277.02 338.57 274.5 349.13 269.89 359.42 263.07 369.43 254.2 379.13 243.66 388.54 232.02 397.64 219.97 410.68 202.83 414.93 197.44" stroke-dasharray="15 19" transform="rotate(44.44, 400, 400)"/>
    <path d="M419.47 209.83Q431.27 211.81 442.93 215.35 454.42 220.71 465.71 227.93 476.78 236.89 487.59 247.28 498.13 258.61 508.37 270.31 518.29 281.76 527.89 292.34 537.14 301.51 546.05 308.87 562.63 316.55 578.16 318.88 572.35 330.14 565.81 341.4 558.8 352.66 551.61 363.92 544.51 375.18 537.79 386.43 531.7 397.69 526.48 408.95 522.35 420.21 519.46 431.47 517.92 442.73 517.8 453.99 519.1 465.25 521.77 476.51 525.71 487.77 530.76 499.03 524.36 512.13 518.05 523.52 505.56 537.47 493.02 543.18 480.04 538.49 466.61 531.84 452.17 530.77 437 537.26 428.96 545.66 420.64 556.84 408.83 559.3 396.93 562.97 384.95 566.91 372.94 570.13 360.93 571.76 348.94 571.09 337 567.66 325.13 561.28 313.37 552.07 301.73 540.46 290.22 527.08 278.88 512.75 267.71 498.38 256.72 484.87 245.92 473 235.31 463.4 232.99 452.65 231.19 441.9 229.96 431.15 229.36 420.4 229.41 409.65 230.12 398.9 231.45 388.16 233.35 377.41 235.74 366.66 238.54 355.91 241.63 345.16 244.89 334.41 248.19 323.67 251.41 312.92 254.41 302.17 257.09 291.42 268.34 289.25 279.56 288.67 290.7 289.14 301.75 290.02 312.69 290.66 323.48 290.44 334.11 288.83 344.55 285.45 354.79 280.12 364.8 272.86 374.57 263.88 384.09 253.56 393.35 242.41 402.33 231.01 415.26 214.9 419.47 209.83" stroke-dasharray="6 19" transform="rotate(48.48, 400, 400)"/>
    <path d="M423.01 222.22Q433.58 223.93 443.98 227 454.2 231.66 464.2 237.97 473.98 245.86 483.52 255.13 492.8 265.43 501.81 276.32 510.54 287.3 518.99 297.85 527.14 307.48 534.99 315.79 549.69 326.43 563.54 331.81 557.86 342.37 551.68 352.94 545.2 363.51 538.65 374.07 532.24 384.64 526.2 395.21 520.73 405.77 516.01 416.34 512.21 426.91 509.45 437.47 507.82 448.04 507.39 458.61 508.16 469.17 510.12 479.74 513.18 490.31 517.26 500.88 511.07 511.16 504.99 519.44 493.09 527.78 481.26 529.41 469.26 524.02 457.02 518.26 444.11 518.74 430.69 526.01 423.64 534.06 416.38 544.45 405.15 546.58 393.88 549.79 382.61 553.34 371.35 556.45 360.14 558.42 348.98 558.62 337.91 556.61 326.94 552.14 316.09 545.18 305.37 535.92 294.79 524.76 284.38 512.23 274.13 499 264.05 485.8 254.15 473.32 244.42 462.2 242.43 452.16 240.94 442.11 239.98 432.06 239.61 422.01 239.82 411.97 240.61 401.92 241.96 391.87 243.82 381.82 246.12 371.78 248.79 361.73 251.74 351.68 254.86 341.64 258.06 331.59 261.22 321.54 270.91 306.32 288.14 301.72 298.65 302.67 309.1 303.45 319.47 303.55 329.75 302.51 339.9 299.99 349.91 295.79 359.76 289.85 369.43 282.28 378.91 273.31 388.19 263.31 397.25 252.72 406.08 242.02 418.84 226.96 423.01 222.22" stroke-dasharray="18 9" transform="rotate(52.52, 400, 400)"/>
    <path d="M425.38 234.61Q434.7 236.07 443.84 238.7 452.8 242.7 461.56 248.13 470.11 254.98 478.44 263.11 486.54 272.29 494.41 282.2 502.03 292.46 509.42 302.65 516.56 312.37 523.46 321.23 536.45 334.37 548.78 342.94 543.35 352.77 537.6 362.6 531.68 372.42 525.77 382.25 520.05 392.08 514.67 401.9 509.78 411.73 505.54 421.56 502.07 431.38 499.45 441.21 497.78 451.03 497.1 460.86 497.42 470.69 498.74 480.51 499.62 498.85 492.39 512.61 472.64 514.29 458.68 509.44 447.37 505.72 435.84 505.94 429.9 509.3 423.84 514.82 417.63 522.47 411.28 532.06 400.77 533.87 390.27 536.65 379.82 539.8 369.42 542.74 359.09 544.88 348.84 545.73 338.7 544.88 328.68 542.04 318.77 537.12 309.01 530.13 299.38 521.27 289.91 510.88 280.59 499.38 271.43 487.3 262.43 475.2 253.59 463.61 251.94 454.24 250.76 444.88 250.08 435.51 249.91 426.14 250.26 416.77 251.13 407.4 252.48 398.03 254.28 388.66 256.48 379.29 259.01 369.92 261.8 360.55 264.76 351.18 267.82 341.81 270.89 332.44 280.2 318.77 296.39 315.47 306.23 316.3 316.04 316.53 325.8 315.8 335.49 313.83 345.1 310.41 354.61 305.48 364.01 299.08 373.28 291.34 382.4 282.52 391.36 272.94 400.15 262.97 408.75 253 421.27 239.02 425.38 234.61" stroke-dasharray="12 17" transform="rotate(56.56, 400, 400)"/>
    <path d="M426.44 247.01Q442.47 250.46 457.81 258.43 472.4 271.27 486.23 288.08 499.27 306.94 511.54 325.35 523.07 340.84 533.93 351.61 523.59 369.68 513 387.75 503.18 405.83 495.07 423.9 489.47 441.97 486.91 460.04 487.64 478.12 491.58 496.19 480.27 503.04 469.39 503.69 458.8 500.03 448.37 495.08 437.96 492.27 427.44 494.55 416.68 503.66 405.59 519.66 386.32 523.55 367.31 529 348.66 532.49 330.44 531.03 312.72 522.95 295.53 508.22 278.9 488.48 262.84 466.55 260.67 449.16 260.27 431.77 261.68 414.39 264.75 397 269.2 379.61 274.59 362.22 280.41 344.83 286.09 327.45 304.33 329.27 322.58 328.86 340.73 324.23 358.68 314.5 376.33 300.06 393.56 282.46 410.3 263.97 426.44 247.01 426.44 247.01 426.44 247.01" stroke-dasharray="16 11" transform="rotate(60.599999999999994, 400, 400)"/>
    <path d="M426.15 259.41Q439.87 262.25 452.99 268.87 465.49 279.64 477.37 294.08 488.63 310.93 499.31 328.39 509.44 344.46 519.08 357.42 509.69 373.83 500.33 390.24 491.74 406.66 484.61 423.07 479.5 439.48 476.83 455.89 476.81 472.3 479.43 488.71 468.67 491.06 458.33 489.19 448.32 485.07 438.53 481.17 428.86 479.96 419.22 483.42 409.5 492.56 399.63 507.27 382.27 510.51 365.24 515.29 348.59 518.97 332.37 519.19 316.61 514.34 301.33 503.91 286.53 488.5 272.21 469.77 270.69 453.76 270.7 437.75 272.25 421.74 275.22 405.73 279.37 389.72 284.36 373.71 289.81 357.7 295.27 341.69 311.97 342.39 328.73 340.05 345.48 333.59 362.13 322.82 378.61 308.44 394.82 291.85 410.69 274.89 426.15 259.41 426.15 259.41 426.15 259.41" stroke-dasharray="18 7" transform="rotate(64.64, 400, 400)"/>
    <path d="M424.51 271.8Q436.1 274.1 447.2 279.47 457.81 288.28 467.94 300.34 477.62 314.87 486.87 330.7 495.73 346.36 504.26 360.41 495.91 375.1 487.77 389.78 480.35 404.47 474.14 419.16 469.54 433.85 466.84 448.54 461.92 470.2 447.86 474.09 438.43 470.37 429.26 467.83 420.27 468.14 411.39 472.52 402.55 481.51 393.68 494.87 378.36 497.53 363.38 501.61 348.77 505.23 334.56 506.59 320.75 504.33 307.35 497.69 294.35 486.67 281.76 472 280.83 457.43 281.2 442.85 282.86 428.28 285.69 413.7 289.51 399.13 294.08 384.55 299.09 369.98 304.22 355.41 319.33 354.23 334.54 349.84 349.78 341.85 365.01 330.48 380.16 316.52 395.17 301.16 409.97 285.79 424.51 271.8 424.51 271.8 424.51 271.8" stroke-dasharray="2 17" transform="rotate(68.68, 400, 400)"/>
    <path d="M421.63 284.19Q431.28 286 440.56 290.24 449.49 297.24 458.08 306.96 466.35 319.02 474.32 332.7 482.03 347.03 489.52 360.96 482.27 373.9 475.32 386.84 469.01 399.77 463.67 412.71 459.58 425.65 456.94 438.58 451.49 456.82 437.99 458.94 420.76 456.53 404.14 461.86 396.07 470.49 388.05 482.48 374.84 484.61 361.93 488 349.36 491.35 337.12 493.38 325.22 493.01 313.66 489.47 302.42 482.47 291.5 472.13 291.11 459.06 291.79 445.99 293.5 432.92 296.16 419.85 299.63 406.78 303.74 393.71 308.26 380.64 312.98 367.58 326.45 364.26 340.03 358.05 353.68 349 367.38 337.52 381.06 324.33 394.69 310.38 408.23 296.67 421.63 284.19 421.63 284.19 421.63 284.19" stroke-dasharray="11 1" transform="rotate(72.72, 400, 400)"/>
    <path d="M417.63 296.58Q433.13 302.25 447.91 314.08 454.92 323.64 461.74 334.83 468.4 347.12 474.93 359.82 468.79 371.01 462.98 382.19 457.71 393.38 453.2 404.57 449.63 415.76 447.13 426.94 441.44 442.41 428.75 444.28 412.91 444.47 397.65 451.42 390.29 459.51 383.04 470.09 371.92 471.74 361.06 474.45 350.47 477.39 340.16 479.68 330.1 480.54 320.31 479.33 310.77 475.64 301.47 469.33 301.54 457.84 302.45 446.35 304.17 434.85 306.63 423.36 309.73 411.87 313.35 400.37 317.35 388.88 321.57 377.39 333.35 372.13 345.26 364.63 357.25 355.1 369.31 344.01 381.4 331.92 393.51 319.53 411.61 302.06 417.63 296.58" stroke-dasharray="20 8" transform="rotate(76.76, 400, 400)"/>
    <path d="M412.73 308.97Q425.38 313.11 437.58 321.79 443.46 328.95 449.23 337.56 454.91 347.34 460.52 357.95 455.49 367.42 450.75 376.89 446.46 386.35 442.73 395.82 439.67 405.29 437.38 414.76 431.76 428 420.13 430.61 405.83 433.2 392.05 441.19 385.41 448.56 378.9 457.7 369.8 458.92 360.91 461.01 343.85 465.29 327.37 467.46 315.8 459.78 313.21 443.48 314.88 433.62 317.1 423.77 319.8 413.91 322.92 404.05 326.36 394.2 330.01 384.34 340.09 377.74 350.27 369.62 360.55 360.26 370.9 350.03 381.31 339.34 391.77 328.64 407.49 313.68 412.73 308.97" stroke-dasharray="14 9" transform="rotate(80.80000000000001, 400, 400)"/>
    <path d="M407.18 321.37Q417.37 323.67 427.24 330.17 436.87 341.27 446.34 356.44 438.65 372.04 432.26 387.63 427.69 403.22 425.3 418.81 412.12 418.33 399.52 422.12 387.44 431.15 375.83 445.3 361.62 447.68 347.98 451.46 334.87 454.2 322.23 453.73 324.06 437.37 327.57 421.01 332.46 404.64 338.35 388.28 355.15 373.22 372.26 355.69 389.63 337.72 407.18 321.37 407.18 321.37 407.18 321.37" stroke-dasharray="4 11" transform="rotate(84.84, 400, 400)"/>
    <path d="M401.26 333.76Q409.21 335.2 417.02 339.28 424.75 346.34 432.42 356.37 426.66 368.72 421.79 381.07 418.06 393.43 415.66 405.78 404.69 407.73 394.11 412.82 383.89 421.29 374 432.91 363.28 434.49 352.9 437.25 338.93 434.2 338.03 415.45 341.97 402.47 346.63 389.47 359.95 375.72 373.52 361.13 387.3 346.79 401.26 333.76 401.26 333.76 401.26 333.76" stroke-dasharray="8 7" transform="rotate(88.88, 400, 400)"/>
    <path d="M395.27 346.16Q410.93 358.9 411.33 377.03 403.14 392.61 389.5 404.37 381.4 411.6 373.51 420.51 352.35 420.41 348.5 407.84 351.47 398.2 354.88 388.57 364.75 377.53 374.78 366.47 390.11 351.01 395.27 346.16" stroke-dasharray="9 9" transform="rotate(92.92, 400, 400)"/>
    <path d="M389.53 358.55Q399.18 367.92 397.3 388.31 385.64 396.7 374.37 408.12 361.96 404.31 363.14 386.5 376.18 371.85 389.53 358.55 389.53 358.55 389.53 358.55" stroke-dasharray="16 13" transform="rotate(96.96, 400, 400)"/>
  </g>
  <path d="M 292.013 524.464 C 292.013 548.665 263.882 568.283 229.178 568.283 C 194.475 568.283 166.343 548.665 166.343 524.464 C 166.343 500.265 194.475 480.647 229.178 480.647 C 263.882 480.647 292.013 500.265 292.013 524.464 Z M 555.212 481.815 C 555.212 506.016 527.08 525.634 492.377 525.634 C 457.673 525.634 429.542 506.016 429.542 481.815 C 429.542 457.615 457.673 437.997 492.377 437.997 C 527.079 437.997 555.212 457.615 555.212 481.815 Z M 269.749 512.076 L 269.749 282.159 L 553.875 210.828 L 553.875 472.859 L 535.404 472.859 L 535.404 257.079 L 290.172 318.646 L 290.172 514.093 L 269.749 512.076 Z" style="stroke: rgb(0, 0, 0);" transform="matrix(1, 0, 0, 1, 1.1368683772161603e-13, 0)"/>
</svg>